<svg xmlns="http://www.w3.org/2000/svg" viewBox="0 0 1600 760" fill="none" preserveAspectRatio="xMidYMid slice">
  <defs>
    <linearGradient id="bg" x1="0" y1="0" x2="1600" y2="760" gradientUnits="userSpaceOnUse"><stop stop-color="#171B23"/><stop offset="1" stop-color="#12151B"/></linearGradient>
    <pattern id="dots" width="24" height="24" patternUnits="userSpaceOnUse"><circle cx="2" cy="2" r="1" fill="#303744" fill-opacity=".7"/></pattern>
    <linearGradient id="run" x1="0" y1="0" x2="480" y2="0" gradientUnits="userSpaceOnUse"><stop stop-color="#FF795E"/><stop offset="1" stop-color="#FF8061"/></linearGradient>
  </defs>
  <rect width="1600" height="760" fill="url(#bg)"/>
  <rect x="0" width="240" height="760" fill="#20252E"/>
  <path d="M240 0v760M240 64h1360M0 64h240" stroke="#333A45"/>
  <g font-family="Arial,sans-serif" fill="#D7DCE5">
    <circle cx="46" cy="35" r="21" fill="#F4F5F7"/><circle cx="46" cy="35" r="16" fill="#172A5E" stroke="#D4B64E" stroke-width="2"/><path d="M46 24l4 8 8 3-8 3-4 8-3-8-8-3 8-3z" fill="#E7C65D"/>
    <text x="78" y="32" font-size="20" font-weight="700">CHCCI</text><text x="78" y="49" font-size="9" fill="#91A4C5" letter-spacing="1.4">NFA LAB</text>
    <text x="26" y="102" font-size="9" fill="#A7B0BF" letter-spacing="2">WORKSPACE</text>
    <rect x="16" y="116" width="208" height="45" rx="9" fill="#272D37" stroke="#3B424E"/><rect x="27" y="126" width="24" height="24" rx="6" fill="#EEF2FF"/><text x="35" y="143" font-size="12" fill="#546CA7">A</text><text x="62" y="144" font-size="12">Automata Lab</text><path d="m204 135 5 5 5-5" stroke="#A4ADBA"/>
    <text x="26" y="198" font-size="9" fill="#A7B0BF" letter-spacing="2">BUILD</text>
    <rect x="16" y="211" width="208" height="42" rx="8" fill="#48302F"/><text x="29" y="238" font-size="16" fill="#FF8061">{ }</text><text x="58" y="237" font-size="12" fill="#FF8061" font-weight="700">NFA Builder</text><circle cx="211" cy="232" r="3" fill="#FF8061"/>
    <path d="m28 276 9-5 9 5-9 5zm0 5 9 5 9-5m-18 5 9 5 9-5" stroke="#AAB3C2" stroke-width="1.5"/><text x="58" y="289" font-size="12" fill="#AAB3C2">Transition table</text>
    <path d="m29 326 10-10m-10 0 10 10" stroke="#AAB3C2" stroke-width="2"/><text x="58" y="326" font-size="12" fill="#AAB3C2">Formal definition</text>
    <text x="26" y="380" font-size="9" fill="#A7B0BF" letter-spacing="2">TOOLS</text><path d="m31 411 10 7-10 7z" stroke="#AAB3C2" stroke-width="1.5"/><text x="58" y="422" font-size="12" fill="#AAB3C2">String simulator</text>
    <path d="M31 451h13v16H31zM35 447h10v15" stroke="#AAB3C2" stroke-width="1.5"/><text x="58" y="463" font-size="12" fill="#AAB3C2">Export as JSON</text>
    <rect x="16" y="666" width="208" height="76" rx="9" fill="#1B2028" stroke="#373F4A"/><circle cx="34" cy="688" r="8" stroke="#9DA8B8"/><text x="31" y="692" font-size="10" fill="#9DA8B8">?</text><text x="52" y="692" font-size="11" font-weight="700">New to NFAs?</text><text x="32" y="716" font-size="9" fill="#A7B0BF">Read the quick guide and get started.</text><text x="32" y="735" font-size="9" fill="#FF8061">Explore guide →</text>
    <text x="278" y="39" font-size="11" fill="#AAB2C0">Projects</text><text x="337" y="39" font-size="11" fill="#778191">/</text><text x="355" y="39" font-size="11" fill="#E5E8ED">NFA Builder</text><circle cx="441" cy="35" r="3" fill="#68C794"/><text x="453" y="39" font-size="10" fill="#9CA6B5">Restored from this device</text>
    <text x="278" y="104" font-size="10" fill="#A8B3C4" letter-spacing="1.1">✣  CHCCI NFA WORKSPACE</text><text x="278" y="143" font-size="30" font-weight="700">NFA Builder</text><text x="278" y="169" font-size="12" fill="#ADB6C5">Design, visualize, and test your nondeterministic finite automata.</text>
    <rect x="278" y="196" width="865" height="470" rx="10" fill="#20252E" stroke="#353D48"/><text x="298" y="225" font-size="12" font-weight="700">State diagram</text><rect x="394" y="207" width="39" height="18" rx="5" fill="#DBF5E8"/><circle cx="404" cy="216" r="2" fill="#56BD88"/><text x="411" y="220" font-size="8" fill="#39895E">LIVE</text><text x="298" y="246" font-size="9" fill="#9DA7B5">Drag states to arrange your automaton</text>
    <rect x="279" y="265" width="863" height="359" fill="url(#dots)"/>
    <g stroke="#929BAA" stroke-width="2" fill="none"><path d="M480 438H598"/><path d="m589 432 11 6-11 6" fill="#929BAA"/><path d="M653 438H775"/><path d="m766 432 11 6-11 6" fill="#929BAA"/><path d="M831 438H954"/><path d="m945 432 11 6-11 6" fill="#929BAA"/><path d="M414 404c-28-30-17-55 6-55 23 0 34 26 12 48"/><path d="m423 397 9 3-1-10" fill="#929BAA"/><path d="M1019 404c-28-30-17-55 6-55 23 0 34 26 12 48"/><path d="m1028 397 9 3-1-10" fill="#929BAA"/></g>
    <path d="M346 438h31" stroke="#FF795E" stroke-width="2"/><path d="m372 431 13 7-13 7" fill="#FF795E"/>
    <g font-family="Arial,sans-serif" text-anchor="middle"><circle cx="430" cy="438" r="29" fill="#242A35" stroke="#758092" stroke-width="1.5"/><text x="430" y="443" fill="#EEF1F5" font-size="11">q0</text><circle cx="630" cy="438" r="29" fill="#242A35" stroke="#758092" stroke-width="1.5"/><text x="630" y="443" fill="#EEF1F5" font-size="11">q1</text><circle cx="805" cy="438" r="29" fill="#242A35" stroke="#758092" stroke-width="1.5"/><text x="805" y="443" fill="#EEF1F5" font-size="11">q2</text><circle cx="1000" cy="438" r="34" fill="#242A35" stroke="#69C992" stroke-width="1.3"/><circle cx="1000" cy="438" r="29" fill="#242A35" stroke="#758092" stroke-width="1.5"/><text x="1000" y="443" fill="#EEF1F5" font-size="11">q3</text></g>
    <g font-family="Arial,sans-serif" text-anchor="middle" font-size="10" fill="#D8DDE5"><rect x="420" y="354" width="24" height="20" rx="5" fill="#252B35" stroke="#3E4652"/><text x="432" y="368">1</text><rect x="618" y="406" width="24" height="20" rx="5" fill="#252B35" stroke="#3E4652"/><text x="630" y="420">1</text><rect x="793" y="406" width="24" height="20" rx="5" fill="#252B35" stroke="#3E4652"/><text x="805" y="420">0</text><rect x="989" y="406" width="24" height="20" rx="5" fill="#252B35" stroke="#3E4652"/><text x="1001" y="420">1</text><rect x="990" y="354" width="24" height="20" rx="5" fill="#252B35" stroke="#3E4652"/><text x="1002" y="368">1</text></g>
    <circle cx="297" cy="644" r="3" fill="#68C794"/><text x="307" y="648" font-size="9" fill="#AAB3C0">4 states  ·  7 transitions</text><text x="1020" y="648" font-size="10" fill="#AAB3C0">＋   100%   −   ↻</text>
    <rect x="1160" y="196" width="420" height="470" rx="10" fill="#20252E" stroke="#353D48"/><text x="1180" y="225" font-size="12" font-weight="700">∿  String simulator</text><text x="1180" y="246" font-size="9" fill="#9DA7B5">Run an input through your NFA</text><text x="1180" y="279" font-size="8" fill="#AAB3C0" letter-spacing="1">INPUT STRING (SYMBOLS: 0, 1)</text><rect x="1180" y="291" width="380" height="38" rx="7" fill="#262C36" stroke="#414956"/><text x="1192" y="315" font-size="12">{ }</text><text x="1220" y="315" font-size="11">0101</text><text x="1542" y="315" font-size="15" fill="#A9B1BE">×</text><text x="1181" y="352" font-size="8" fill="#AAB3C0">TRY</text><rect x="1207" y="337" width="40" height="22" rx="5" fill="#282E38" stroke="#444C58"/><text x="1217" y="352" font-size="9">0101</text><rect x="1253" y="337" width="40" height="22" rx="5" fill="#282E38" stroke="#444C58"/><text x="1263" y="352" font-size="9">110</text><rect x="1299" y="337" width="40" height="22" rx="5" fill="#282E38" stroke="#444C58"/><text x="1309" y="352" font-size="9">001</text>
    <rect x="1180" y="373" width="380" height="37" rx="7" fill="url(#run)"/><path d="m1192 384 10 7-10 7z" fill="#FFF"/><text x="1210" y="396" font-size="10" font-weight="700" fill="#FFF">Run simulation</text>
    <rect x="1180" y="423" width="380" height="91" rx="8" fill="#1B2028" stroke="#383F49"/><circle cx="1200" cy="449" r="11" fill="#29313D" stroke="#47515F"/><path d="M1195 449h10m-5-5v10" stroke="#AAB4C2"/><text x="1220" y="447" font-size="10" font-weight="700">Ready to simulate</text><text x="1220" y="465" font-size="8" fill="#AAB3C0">Enter an input string and run the simulation.</text><path d="M1192 479h356" stroke="#363D47"/><text x="1192" y="500" font-size="8" fill="#9FA8B5">Current states</text><rect x="1520" y="484" width="25" height="20" rx="5" fill="#FFF0ED"/><text x="1525" y="498" font-size="8" fill="#FF795E">q0</text><text x="1180" y="536" font-size="8" fill="#AAB3C0">ⓘ  An NFA accepts if any path reaches a final state.</text>
    <rect x="278" y="682" width="1302" height="78" rx="10" fill="#20252E" stroke="#353D48"/><text x="298" y="711" font-size="12" fill="#FF8061">■  Transition Table</text><text x="420" y="711" font-size="11" fill="#AAB3C0">{ }  Formal Definition</text><text x="572" y="711" font-size="11" fill="#AAB3C0">⇆  Batch Tests</text>
  </g>
</svg>
